# xmcd CD database file
#
# Track frame offsets:
#	150
#	17080
#	44082
#
# Disc length: 812 seconds
#
# Revision: 0
# Processed by: cddbd v1.5PL3 Copyright (c) Steve Scherf et al.
# Submitted via: CDex 1.50beta9
#
DISCID=21032a03
DTITLE=少年隊 - Ｏｈ！！
DYEAR=1995
DGENRE=J-POP
TTITLE0=Ｏｈ！！
TTITLE1=ＰＧＦ
TTITLE2=Ｏｈ！！　カラオケ
EXTD=YEAR: 1995
EXTT0=
EXTT1=
EXTT2=
PLAYORDER=
